<?xml version="1.0" encoding="UTF-8"?>
<svg id="Layer_2" data-name="Layer 2" xmlns="http://www.w3.org/2000/svg" viewBox="0 0 1088.42 2430">
  <defs>
    <style>
      .cls-1 {
        fill: #187795;
        opacity: .32;
      }

      .cls-2 {
        fill: #201e1f;
      }
    </style>
  </defs>
  <g id="Background_Grey" data-name="Background Grey">
    <rect id="Final_Background" data-name="Final Background" class="cls-2" x="8.42" width="1080" height="2430"/>
    <g id="Flake_Layer" data-name="Flake Layer">
      <path id="Flake_82" data-name="Flake 82" class="cls-1" d="m1060.36,1860.73c-2.31-1.42-5.01,1.77-3.03,3.48,2.97,2.48,5.34,5.25,7.12,8.56,1.52,2.89,1.98,6.14,4.02,8.79,1.05,1.42,3.23,1.12,3.82-.47,3.16-7.67-5.54-16.41-11.93-20.36h0Z"/>
      <path id="Flake_81" data-name="Flake 81" class="cls-1" d="m839.78,1144.38c-3.36-7.56-10.28-14.11-16.09-20.31-1.91-2.07-5.67.59-4.09,2.83,4.68,6.61,9.43,14.52,16.22,19.6,1.58,1.18,4.94.12,3.96-2.07v-.06Z"/>
      <path id="Flake_80" data-name="Flake 80" class="cls-1" d="m212.01,1231.26c-3.23-6.02-9.1-11.22-13.71-16.41-1.85-2.07-6,.71-4.15,2.89,4.48,5.25,8.77,11.63,14.5,15.88,1.91,1.42,4.48-.3,3.36-2.36h0Z"/>
      <path id="Flake_79" data-name="Flake 79" class="cls-1" d="m7.38,57.92c1.58,1.18,4.94.12,3.96-2.07v-.06"/>
      <path id="Flake_78" data-name="Flake 78" class="cls-1" d="m1055.28,2400.42c-3.23-6.02-9.1-11.22-13.71-16.41-1.85-2.07-6,.71-4.15,2.89,4.48,5.25,8.77,11.63,14.5,15.88,1.91,1.42,4.48-.3,3.36-2.36h0Z"/>
      <path id="Flake_77" data-name="Flake 77" class="cls-1" d="m352.16,1432.78c-3.23-6.02-9.1-11.22-13.71-16.41-1.85-2.07-6,.71-4.15,2.89,4.48,5.25,8.77,11.63,14.5,15.88,1.91,1.42,4.48-.3,3.36-2.36h0Z"/>
      <path id="Flake_76" data-name="Flake 76" class="cls-1" d="m1080.33,1644.45c-1.58-4.07-8.83-2.42-7.32,1.83,1.45,4.01,2.44,8.09,5.74,11.22,1.71,1.59,4.22.24,4.48-1.65.46-4.01-1.45-7.67-2.9-11.39Z"/>
      <path id="Flake_75" data-name="Flake 75" class="cls-1" d="m376.55,1338.46c-1.58-4.07-8.83-2.42-7.32,1.83,1.45,4.01,2.44,8.09,5.74,11.22,1.71,1.59,4.22.24,4.48-1.65.46-4.01-1.45-7.67-2.9-11.39h0Z"/>
      <path id="Flake_74" data-name="Flake 74" class="cls-1" d="m1014.15,559.24c-6.72,1.36-10.94,8.5-13.65,13.64-2.18,4.13,4.75,7.67,6.79,3.54,2.57-5.08,7.84-9.5,9.56-14.82.46-1.48-1.12-2.77-2.7-2.42v.06Z"/>
      <path id="Flake_73" data-name="Flake 73" class="cls-1" d="m972.75,1052.59c-10.35,4.72-16.41,18.36-19.38,27.74-1.25,3.9,5.27,5.43,6.72,1.65,1.85-4.9,4.35-9.56,7.38-13.93,2.83-4.07,7.05-7.56,9.36-11.81,1.32-2.42-1.32-4.9-4.09-3.66Z"/>
      <path id="Flake_72" data-name="Flake 72" class="cls-1" d="m109.43,2410.98c-6.66,1.36-10.94,8.5-13.65,13.64-2.18,4.13,4.75,7.67,6.79,3.54,2.57-5.08,7.84-9.5,9.56-14.82.46-1.48-1.12-2.77-2.7-2.42v.06Z"/>
      <path id="Flake_71" data-name="Flake 71" class="cls-1" d="m781.04,1205.76c-3.23-6.02-9.1-11.22-13.71-16.41-1.85-2.07-6,.71-4.15,2.89,4.48,5.25,8.77,11.63,14.5,15.88,1.91,1.42,4.48-.3,3.36-2.36h0Z"/>
      <path id="Flake_70" data-name="Flake 70" class="cls-1" d="m949.15,1196.02c-1.98-3.19-3.43-6.49-4.55-9.98-1.25-3.9-8.11-2.24-6.79,1.65,1.98,6.14,5.34,15.35,12.06,18.53,1.98.94,4.35-.59,3.76-2.6-.79-2.89-2.83-5.08-4.48-7.61Z"/>
      <path id="Flake_69" data-name="Flake 69" class="cls-1" d="m912.89,1329.84c-6.66,1.36-10.94,8.5-13.65,13.64-2.18,4.13,4.75,7.67,6.79,3.54,2.57-5.08,7.84-9.5,9.56-14.82.46-1.48-1.12-2.77-2.7-2.42v.06Z"/>
      <path id="Flake_68" data-name="Flake 68" class="cls-1" d="m951.32,1415.9c-6.66,1.36-10.94,8.5-13.65,13.64-2.18,4.13,4.75,7.67,6.79,3.54,2.57-5.08,7.84-9.5,9.56-14.82.46-1.48-1.12-2.77-2.7-2.42v.06Z"/>
      <path id="Flake_67" data-name="Flake 67" class="cls-1" d="m786.71,1895.08c-10.35,4.72-16.41,18.36-19.38,27.74-1.25,3.9,5.27,5.43,6.72,1.65,1.85-4.9,4.35-9.5,7.38-13.93,2.83-4.07,7.05-7.56,9.36-11.81,1.32-2.42-1.32-4.9-4.09-3.66h0Z"/>
      <path id="Flake_66" data-name="Flake 66" class="cls-1" d="m1066.82,2137.21c-3.36-7.56-10.28-14.11-16.09-20.31-1.91-2.07-5.67.59-4.09,2.83,4.68,6.61,9.43,14.52,16.22,19.6,1.58,1.18,4.94.12,3.96-2.07v-.06Z"/>
      <path id="Flake_65" data-name="Flake 65" class="cls-1" d="m14.31,1813.1c-6.66,1.36-10.94,8.5-13.65,13.64-2.18,4.13,4.75,7.67,6.79,3.54,2.57-5.08,7.84-9.5,9.56-14.82.46-1.48-1.12-2.77-2.7-2.42v.06Z"/>
      <path id="Flake_64" data-name="Flake 64" class="cls-1" d="m373.45,2402.54c3.36-7.56,10.28-14.11,16.09-20.31,1.91-2.07,5.67.59,4.09,2.83-4.61,6.61-9.43,14.52-16.22,19.6-1.58,1.18-4.94.12-3.96-2.07v-.06Z"/>
      <path id="Flake_63" data-name="Flake 63" class="cls-1" d="m905.51,493.25c3.36-7.56,10.28-14.11,16.09-20.31,1.91-2.07,5.67.59,4.09,2.83-4.61,6.61-9.43,14.52-16.22,19.6-1.58,1.18-4.94.12-3.96-2.07v-.06Z"/>
      <path id="Flake_62" data-name="Flake 62" class="cls-1" d="m980.72,2336.49c1.98-3.19,3.43-6.49,4.55-9.98,1.25-3.9,8.11-2.24,6.79,1.65-1.98,6.14-5.34,15.35-12.06,18.53-1.98.94-4.35-.59-3.76-2.6.79-2.89,2.83-5.08,4.48-7.61Z"/>
      <path id="Flake_61" data-name="Flake 61" class="cls-1" d="m41.14,1634.12c-1.58-4.07-8.83-2.42-7.32,1.83,1.45,4.01,2.44,8.09,5.74,11.22,1.71,1.59,4.22.24,4.48-1.65.46-4.01-1.45-7.61-2.9-11.39Z"/>
      <path id="Flake_60" data-name="Flake 60" class="cls-1" d="m405.16,15.01c-10.35,4.72-16.41,18.36-19.38,27.74-1.25,3.9,5.27,5.43,6.72,1.65,1.85-4.9,4.35-9.56,7.38-13.93,2.83-4.07,7.05-7.56,9.36-11.81,1.32-2.42-1.32-4.9-4.09-3.66Z"/>
      <path id="Flake_59" data-name="Flake 59" class="cls-1" d="m516.83,76.4c-10.35,4.72-16.41,18.36-19.38,27.74-1.25,3.9,5.27,5.43,6.72,1.65,1.85-4.9,4.35-9.56,7.38-13.93,2.83-4.07,7.05-7.56,9.36-11.81,1.32-2.42-1.32-4.9-4.09-3.66Z"/>
      <path id="Flake_58" data-name="Flake 58" class="cls-1" d="m198.43,682.96c-1.98-3.19-3.43-6.49-4.55-9.98-1.25-3.9-8.11-2.24-6.79,1.65,1.98,6.14,5.34,15.35,12.06,18.53,1.98.94,4.35-.59,3.76-2.6-.79-2.89-2.83-5.08-4.48-7.61h0Z"/>
      <path id="Flake_57" data-name="Flake 57" class="cls-1" d="m596.79,316.58c3.36-7.56,10.28-14.11,16.09-20.31,1.91-2.07,5.67.59,4.09,2.83-4.61,6.61-9.43,14.52-16.22,19.6-1.58,1.18-4.94.12-3.96-2.07v-.06Z"/>
      <path id="Flake_56" data-name="Flake 56" class="cls-1" d="m0,282.4c1.91,1.42,4.48-.3,3.36-2.36"/>
      <path id="Flake_55" data-name="Flake 55" class="cls-1" d="m792.45,224.79c-2.11-4.6-6.06-8.2-9.56-11.98-2.64-2.83-7.19,1.24-4.55,4.07,3.43,3.6,6.53,7.56,11.01,10.09,1.45.83,3.82-.59,3.1-2.12v-.06Z"/>
      <path id="Flake_54" data-name="Flake 54" class="cls-1" d="m719.87,2345.76c3.23-6.02,9.1-11.22,13.71-16.41,1.85-2.07,6,.71,4.15,2.89-4.48,5.25-8.77,11.63-14.5,15.88-1.91,1.42-4.48-.3-3.36-2.36h0Z"/>
      <path id="Flake_53" data-name="Flake 53" class="cls-1" d="m698.51,1055.25c-3.23-6.02-9.1-11.22-13.71-16.41-1.85-2.07-6,.71-4.15,2.89,4.48,5.25,8.77,11.63,14.5,15.88,1.91,1.42,4.48-.3,3.36-2.36h0Z"/>
      <path id="Flake_52" data-name="Flake 52" class="cls-1" d="m762.32,2167.97c-1.98-3.19-3.43-6.49-4.55-9.98-1.25-3.9-8.11-2.24-6.79,1.65,1.98,6.14,5.34,15.35,12.06,18.53,1.98.94,4.35-.59,3.76-2.6-.79-2.89-2.83-5.08-4.48-7.61h0Z"/>
      <path id="Flake_51" data-name="Flake 51" class="cls-1" d="m1068.4,81c-10.35,4.72-16.41,18.36-19.38,27.74-1.25,3.9,5.27,5.43,6.72,1.65,1.85-4.9,4.35-9.56,7.38-13.93,2.83-4.07,7.05-7.56,9.36-11.81,1.32-2.42-1.32-4.9-4.09-3.66Z"/>
      <path id="Flake_50" data-name="Flake 50" class="cls-1" d="m409.11,1080.51c-1.98-3.19-3.43-6.49-4.55-9.98-1.25-3.9-8.11-2.24-6.79,1.65,1.98,6.14,5.34,15.35,12.06,18.53,1.98.94,4.35-.59,3.76-2.6-.79-2.89-2.83-5.08-4.48-7.61h0Z"/>
      <path id="Flake_49" data-name="Flake 49" class="cls-1" d="m273.84,556.35c3.36-7.56,10.28-14.11,16.09-20.31,1.91-2.07,5.67.59,4.09,2.83-4.61,6.61-9.43,14.52-16.22,19.6-1.58,1.18-4.94.12-3.96-2.07v-.06Z"/>
      <path id="Flake_48" data-name="Flake 48" class="cls-1" d="m895.09,198.35c-6.66,3.66-9.82,10.09-11.67,16.7-1.12,3.95,5.74,5.61,6.79,1.65,1.52-5.73,4.94-10.62,7.58-15.94.73-1.48-.86-3.42-2.7-2.42h0Z"/>
      <path id="Flake_47" data-name="Flake 47" class="cls-1" d="m909.79,48.18c-6.66,3.66-9.82,10.09-11.67,16.7-1.12,3.95,5.74,5.61,6.79,1.65,1.52-5.73,4.94-10.62,7.58-15.94.73-1.48-.86-3.42-2.7-2.42Z"/>
      <path id="Flake_46" data-name="Flake 46" class="cls-1" d="m100,505.64c-3.23-6.02-9.1-11.22-13.71-16.41-1.85-2.07-6,.71-4.15,2.89,4.48,5.25,8.77,11.63,14.5,15.88,1.91,1.42,4.48-.3,3.36-2.36h0Z"/>
      <path id="Flake_45" data-name="Flake 45" class="cls-1" d="m783.48,1664.05c-3.23-6.02-9.1-11.22-13.71-16.41-1.85-2.07-6,.71-4.15,2.89,4.48,5.25,8.77,11.63,14.5,15.88,1.91,1.42,4.48-.3,3.36-2.36h0Z"/>
      <path id="Flake_44" data-name="Flake 44" class="cls-1" d="m111.01,247.93c-3.23-6.02-9.1-11.22-13.71-16.41-1.85-2.07-6,.71-4.15,2.89,4.48,5.25,8.77,11.63,14.5,15.88,1.91,1.42,4.48-.3,3.36-2.36h0Z"/>
      <path id="Flake_43" data-name="Flake 43" class="cls-1" d="m283.47,178.69c-3.23-6.02-9.1-11.22-13.71-16.41-1.85-2.07-6,.71-4.15,2.89,4.48,5.25,8.77,11.63,14.5,15.88,1.91,1.42,4.48-.3,3.36-2.36h0Z"/>
      <path id="Flake_42" data-name="Flake 42" class="cls-1" d="m357.5,413.5c-1.58-4.07-8.83-2.42-7.32,1.83,1.45,4.01,2.44,8.09,5.74,11.22,1.71,1.59,4.22.24,4.48-1.65.46-4.01-1.45-7.61-2.9-11.39h0Z"/>
      <path id="Flake_41" data-name="Flake 41" class="cls-1" d="m1075.12,296.75c-1.58-4.07-8.83-2.42-7.32,1.83,1.45,4.01,2.44,8.09,5.74,11.22,1.71,1.59,4.22.24,4.48-1.65.46-4.01-1.45-7.61-2.9-11.39Z"/>
      <path id="Flake_40" data-name="Flake 40" class="cls-1" d="m960.02,1883.63c-1.98-3.19-3.43-6.49-4.55-9.98-1.25-3.9-8.11-2.24-6.79,1.65,1.98,6.14,5.34,15.35,12.06,18.53,1.98.94,4.35-.59,3.76-2.6-.79-2.89-2.83-5.08-4.48-7.61Z"/>
      <path id="Flake_39" data-name="Flake 39" class="cls-1" d="m1071.17,1423.28c-1.98-3.19-3.43-6.49-4.55-9.98-1.25-3.9-8.11-2.24-6.79,1.65,1.98,6.14,5.34,15.35,12.06,18.53,1.98.94,4.35-.59,3.76-2.6-.79-2.89-2.83-5.08-4.48-7.61Z"/>
      <path id="Flake_38" data-name="Flake 38" class="cls-1" d="m776.36,709.52c-2.31-1.42-5.01,1.77-2.97,3.48,2.97,2.48,5.34,5.25,7.12,8.56,1.52,2.89,1.98,6.14,4.02,8.8,1.05,1.42,3.23,1.12,3.82-.47,3.16-7.67-5.54-16.41-11.93-20.36h-.07Z"/>
      <path id="Flake_37" data-name="Flake 37" class="cls-1" d="m119.85,1131.33c-10.35,4.72-16.41,18.36-19.38,27.74-1.25,3.9,5.27,5.43,6.72,1.65,1.85-4.9,4.35-9.56,7.38-13.93,2.83-4.07,7.05-7.56,9.36-11.81,1.32-2.42-1.32-4.9-4.09-3.66Z"/>
      <path id="Flake_36" data-name="Flake 36" class="cls-1" d="m281.95,1855.83c-10.35,4.72-16.41,18.36-19.38,27.74-1.25,3.9,5.27,5.43,6.72,1.65,1.85-4.9,4.35-9.56,7.38-13.93,2.83-4.07,7.05-7.56,9.36-11.81,1.32-2.42-1.32-4.9-4.09-3.66h0Z"/>
      <path id="Flake_35" data-name="Flake 35" class="cls-1" d="m708.2,1293.6c3.36-7.56,10.28-14.11,16.09-20.31,1.91-2.07,5.67.59,4.09,2.83-4.68,6.61-9.43,14.52-16.22,19.6-1.58,1.18-4.94.12-3.96-2.07v-.06Z"/>
      <path id="Flake_34" data-name="Flake 34" class="cls-1" d="m103.63,1065.57c-3.36-7.56-10.28-14.11-16.09-20.31-1.91-2.07-5.67.59-4.09,2.83,4.61,6.61,9.43,14.52,16.22,19.6,1.58,1.18,4.94.12,3.96-2.07v-.06Z"/>
      <path id="Flake_33" data-name="Flake 33" class="cls-1" d="m385.84,682.96c-1.98-3.19-3.43-6.49-4.55-9.98-1.25-3.9-8.11-2.24-6.79,1.65,1.98,6.14,5.34,15.35,12.06,18.53,1.98.94,4.35-.59,3.76-2.6-.79-2.89-2.83-5.08-4.48-7.61h0Z"/>
      <path id="Flake_32" data-name="Flake 32" class="cls-1" d="m554.87,775.4c-6.66,1.36-10.94,8.5-13.65,13.64-2.18,4.13,4.75,7.67,6.79,3.54,2.57-5.08,7.84-9.5,9.56-14.82.46-1.48-1.12-2.77-2.7-2.42v.06Z"/>
      <path id="Flake_31" data-name="Flake 31" class="cls-1" d="m274.3,1318.45c-2.11-4.6-6.06-8.2-9.56-11.98-2.64-2.83-7.19,1.24-4.55,4.07,3.43,3.6,6.53,7.56,11.01,10.09,1.45.83,3.82-.59,3.1-2.12v-.06Z"/>
      <path id="Flake_30" data-name="Flake 30" class="cls-1" d="m194.07,1682.76c-2.11-4.6-6.06-8.2-9.56-11.98-2.64-2.83-7.19,1.24-4.55,4.07,3.43,3.6,6.53,7.56,11.01,10.09,1.45.83,3.82-.59,3.1-2.12v-.06Z"/>
      <path id="Flake_29" data-name="Flake 29" class="cls-1" d="m682.43,1815.99c1.98-3.19,3.43-6.49,4.55-9.98,1.25-3.9,8.11-2.24,6.79,1.65-1.98,6.14-5.34,15.35-12.06,18.53-1.98.94-4.35-.59-3.76-2.6.79-2.89,2.83-5.08,4.48-7.61h0Z"/>
      <path id="Flake_28" data-name="Flake 28" class="cls-1" d="m355.72,895.46c1.98-3.19,3.43-6.49,4.55-9.98,1.25-3.9,8.11-2.24,6.79,1.65-1.98,6.14-5.34,15.35-12.06,18.53-1.98.94-4.35-.59-3.76-2.6.79-2.89,2.83-5.08,4.48-7.61h0Z"/>
      <path id="Flake_27" data-name="Flake 27" class="cls-1" d="m669.18,588.22c1.98-3.19,3.43-6.49,4.55-9.98,1.25-3.9,8.11-2.24,6.79,1.65-1.98,6.14-5.34,15.35-12.06,18.53-1.98.94-4.35-.59-3.76-2.6.79-2.89,2.83-5.08,4.48-7.61h0Z"/>
      <path id="Flake_26" data-name="Flake 26" class="cls-1" d="m481.89,648.31c-6.66,3.66-9.82,10.09-11.67,16.7-1.12,3.95,5.74,5.61,6.79,1.65,1.52-5.73,4.94-10.62,7.58-15.94.73-1.48-.86-3.42-2.7-2.42h0Z"/>
      <path id="Flake_25" data-name="Flake 25" class="cls-1" d="m201.33,2271.97c-3.36-7.56-10.28-14.11-16.09-20.31-1.91-2.07-5.67.59-4.09,2.83,4.61,6.61,9.43,14.52,16.22,19.6,1.58,1.18,4.94.12,3.96-2.07v-.06Z"/>
      <path id="Flake_24" data-name="Flake 24" class="cls-1" d="m172.72,950.12c-1.98-3.19-3.43-6.49-4.55-9.98-1.25-3.9-8.11-2.24-6.79,1.65,1.98,6.14,5.34,15.35,12.06,18.53,1.98.94,4.35-.59,3.76-2.6-.79-2.89-2.83-5.08-4.48-7.61h0Z"/>
      <path id="Flake_23" data-name="Flake 23" class="cls-1" d="m227.69,1484.25c-1.98-3.19-3.43-6.49-4.55-9.98-1.25-3.9-8.11-2.24-6.79,1.65,1.98,6.14,5.34,15.35,12.06,18.53,1.98.94,4.35-.59,3.76-2.6-.79-2.89-2.83-5.08-4.48-7.61h0Z"/>
      <path id="Flake_22" data-name="Flake 22" class="cls-1" d="m659.42,709.35c-6.66,1.36-10.94,8.5-13.65,13.64-2.18,4.13,4.75,7.67,6.79,3.54,2.57-5.08,7.84-9.5,9.56-14.82.46-1.48-1.12-2.77-2.7-2.42v.06Z"/>
      <path id="Flake_21" data-name="Flake 21" class="cls-1" d="m766.01,610.24c-10.35,4.72-16.41,18.36-19.38,27.74-1.25,3.9,5.27,5.43,6.72,1.65,1.85-4.9,4.35-9.56,7.38-13.93,2.83-4.07,7.05-7.56,9.36-11.81,1.32-2.42-1.32-4.9-4.09-3.66Z"/>
      <path id="Flake_20" data-name="Flake 20" class="cls-1" d="m931.87,671.45c-2.31-1.42-5.01,1.77-2.97,3.48,2.97,2.48,5.34,5.25,7.12,8.56,1.52,2.89,1.98,6.14,4.02,8.8,1.05,1.42,3.23,1.12,3.82-.47,3.16-7.67-5.54-16.41-11.93-20.36h-.07Z"/>
      <path id="Flake_19" data-name="Flake 19" class="cls-1" d="m427.11,1427.18c-6.66,3.66-9.82,10.09-11.67,16.7-1.12,3.95,5.74,5.61,6.79,1.65,1.52-5.73,4.94-10.62,7.58-15.94.73-1.48-.86-3.42-2.7-2.42h0Z"/>
      <path id="Flake_18" data-name="Flake 18" class="cls-1" d="m226.38,359.61c-3.36-7.56-10.28-14.11-16.09-20.31-1.91-2.07-5.67.59-4.09,2.83,4.61,6.61,9.43,14.52,16.22,19.6,1.58,1.18,4.94.12,3.96-2.07v-.06Z"/>
      <path id="Flake_17" data-name="Flake 17" class="cls-1" d="m1088.24,824.45c-3.36-7.56-10.28-14.11-16.09-20.31-1.91-2.07-5.67.59-4.09,2.83,4.61,6.61,9.43,14.52,16.22,19.6,1.58,1.18,4.94.12,3.96-2.07v-.06Z"/>
      <path id="Flake_16" data-name="Flake 16" class="cls-1" d="m300.34,2114.37c-6.66,3.66-9.82,10.09-11.67,16.7-1.12,3.95,5.74,5.61,6.79,1.65,1.52-5.73,4.94-10.62,7.58-15.94.73-1.48-.86-3.42-2.7-2.42h0Z"/>
      <path id="Flake_15" data-name="Flake 15" class="cls-1" d="m772.87,532.74c-3.36-7.56-10.28-14.11-16.09-20.31-1.91-2.07-5.67.59-4.09,2.83,4.68,6.61,9.43,14.52,16.22,19.6,1.58,1.18,4.94.12,3.96-2.07v-.06Z"/>
      <path id="Flake_14" data-name="Flake 14" class="cls-1" d="m96.58,1302.39c-6.66,1.36-10.94,8.5-13.65,13.64-2.18,4.13,4.75,7.67,6.79,3.54,2.57-5.08,7.84-9.5,9.56-14.82.46-1.48-1.12-2.77-2.7-2.42v.06Z"/>
      <path id="Flake_13" data-name="Flake 13" class="cls-1" d="m257.29,884.42c-6.66,3.66-9.82,10.09-11.67,16.7-1.12,3.95,5.74,5.61,6.79,1.65,1.52-5.73,4.94-10.62,7.58-15.94.73-1.48-.86-3.42-2.7-2.42h0Z"/>
      <path id="Flake_12" data-name="Flake 12" class="cls-1" d="m597.12,1907.83c3.23-6.02,9.1-11.22,13.71-16.41,1.85-2.07,6,.71,4.15,2.89-4.48,5.25-8.77,11.63-14.5,15.88-1.91,1.42-4.48-.3-3.36-2.36h0Z"/>
      <path id="Flake_11" data-name="Flake 11" class="cls-1" d="m417.16,1829.74c3.23-6.02,9.1-11.22,13.71-16.41,1.85-2.07,6,.71,4.15,2.89-4.48,5.25-8.77,11.63-14.5,15.88-1.91,1.42-4.48-.3-3.36-2.36h0Z"/>
      <path id="Flake_10" data-name="Flake 10" class="cls-1" d="m621.18,424.19c-1.98-3.19-3.43-6.49-4.55-9.98-1.25-3.9-8.11-2.24-6.79,1.65,1.98,6.14,5.34,15.35,12.06,18.53,1.98.94,4.35-.59,3.76-2.6-.79-2.89-2.83-5.08-4.48-7.61h0Z"/>
      <path id="Flake_9" data-name="Flake 9" class="cls-1" d="m813.74,1512c-1.98-3.19-3.43-6.49-4.55-9.98-1.25-3.9-8.11-2.24-6.79,1.65,1.98,6.14,5.34,15.35,12.06,18.53,1.98.94,4.35-.59,3.76-2.6-.79-2.89-2.83-5.08-4.48-7.61h0Z"/>
      <path id="Flake_8" data-name="Flake 8" class="cls-1" d="m945.98,1701.42c-1.98-3.19-3.43-6.49-4.55-9.98-1.25-3.9-8.11-2.24-6.79,1.65,1.98,6.14,5.34,15.35,12.06,18.53,1.98.94,4.35-.59,3.76-2.6-.79-2.89-2.83-5.08-4.48-7.61Z"/>
      <path id="Flake_7" data-name="Flake 7" class="cls-1" d="m585.72,1252.69c-1.98-3.19-3.43-6.49-4.55-9.98-1.25-3.9-8.11-2.24-6.79,1.65,1.98,6.14,5.34,15.35,12.06,18.53,1.98.94,4.35-.59,3.76-2.6-.79-2.89-2.83-5.08-4.48-7.61h0Z"/>
      <path id="Flake_6" data-name="Flake 6" class="cls-1" d="m186.56,1811.15c-2.11-4.6-6.06-8.2-9.56-11.98-2.64-2.83-7.19,1.24-4.55,4.07,3.43,3.6,6.53,7.56,11.01,10.09,1.45.83,3.82-.59,3.1-2.12v-.06Z"/>
      <path id="Flake_5" data-name="Flake 5" class="cls-1" d="m566.07,2366.83c-1.98-3.19-3.43-6.49-4.55-9.98-1.25-3.9-8.11-2.24-6.79,1.65,1.98,6.14,5.34,15.35,12.06,18.53,1.98.94,4.35-.59,3.76-2.6-.79-2.89-2.83-5.08-4.48-7.61h0Z"/>
      <path id="Flake_4" data-name="Flake 4" class="cls-1" d="m455.65,1613.64c-1.98-3.19-3.43-6.49-4.55-9.98-1.25-3.9-8.11-2.24-6.79,1.65,1.98,6.14,5.34,15.35,12.06,18.53,1.98.94,4.35-.59,3.76-2.6-.79-2.89-2.83-5.08-4.48-7.61h0Z"/>
      <path id="Flake_3" data-name="Flake 3" class="cls-1" d="m166.78,2095.72c-6.66,1.36-10.94,8.5-13.65,13.64-2.18,4.13,4.75,7.67,6.79,3.54,2.57-5.08,7.84-9.5,9.56-14.82.46-1.48-1.12-2.77-2.7-2.42v.06Z"/>
      <path id="Flake_2" data-name="Flake 2" class="cls-1" d="m322.56,1564.53c1.98-3.19,3.43-6.49,4.55-9.98,1.25-3.9,8.11-2.24,6.79,1.65-1.98,6.14-5.34,15.35-12.06,18.53-1.98.94-4.35-.59-3.76-2.6.79-2.89,2.83-5.08,4.48-7.61h0Z"/>
      <path id="Flake_1" data-name="Flake 1" class="cls-1" d="m718.35,19.97c-2.11-4.6-6.06-8.2-9.56-11.98-2.64-2.83-7.19,1.24-4.55,4.07,3.43,3.6,6.53,7.56,11.01,10.09,1.45.83,3.82-.59,3.1-2.12v-.06Z"/>
    </g>
  </g>
</svg>