<?xml version="1.0" encoding="UTF-8"?>
<svg id="Layer_2" data-name="Layer 2" xmlns="http://www.w3.org/2000/svg" viewBox="0 0 164 187.42">
  <defs>
    <style>
      .cls-1 {
        fill: #2c303a;
      }
    </style>
  </defs>
  <g id="Menu_Bar" data-name="Menu Bar">
    <g>
      <path class="cls-1" d="m131.17.07c-18.4-1.19-34,11.89-36.93,29.21H5.86c-2.22,0-4.24,1.25-5.24,3.24-.99,1.98-.78,4.36.55,6.13l51.54,68.72v46.71c-16.19,6.76-23.55,18.83-23.43,27.7.04,3.15,2.7,5.64,5.86,5.64h64.43c3.15,0,5.81-2.49,5.86-5.64.12-8.87-7.24-20.94-23.43-27.7v-46.71l30.77-41.03c4.83,2.5,10.29,3.93,16.09,3.93,20.22,0,36.5-17.16,35.05-37.68C162.68,15.23,148.55,1.2,131.17.07Zm-59.71,101.84c-.76,1.01-1.17,2.24-1.17,3.51v52.71c0,2.52,1.61,4.76,4,5.55,9.28,3.09,14.59,7.93,17.24,12.02h-48.34c2.65-4.08,7.96-8.92,17.24-12.02,2.39-.8,4-3.03,4-5.55v-52.71c0-1.27-.41-2.5-1.17-3.51L17.57,41h99.57l-45.68,60.92Zm61.09-43.64c-4.51.72-8.8.09-12.61-1.49l13.6-18.13c1.33-1.78,1.54-4.15.56-6.13-1-1.98-3.02-3.24-5.24-3.24h-22.6c2.62-10.08,11.71-17.57,22.6-17.57,13.68,0,24.65,11.78,23.32,25.72-1.01,10.53-9.18,19.18-19.62,20.84Z"/>
      <path class="cls-1" d="m36.42,56.37l23.43,29.28c1.16,1.45,2.86,2.2,4.58,2.2,1.28,0,2.57-.42,3.65-1.28,2.52-2.02,2.93-5.71.92-8.23l-15.82-19.77h40.3c2.99,0,5.67-2.15,6.03-5.12.43-3.56-2.33-6.59-5.81-6.59h-52.53c-1.63,0-3.25.58-4.37,1.76-2.12,2.22-2.18,5.52-.38,7.76Z"/>
    </g>
  </g>
</svg>