<?xml version="1.0" encoding="UTF-8"?>
<svg id="Layer_2" data-name="Layer 2" xmlns="http://www.w3.org/2000/svg" xmlns:xlink="http://www.w3.org/1999/xlink" viewBox="0 0 1080 466.71">
  <defs>
    <style>
      .cls-1 {
        fill: #187795;
      }

      .cls-2 {
        clip-path: url(#clippath);
      }

      .cls-3 {
        fill: none;
      }
    </style>
    <clipPath id="clippath">
      <rect id="Leaves_Clipping_Mask" data-name="Leaves Clipping Mask" class="cls-3" width="1080" height="466.71"/>
    </clipPath>
  </defs>
  <g id="Leaves">
    <g id="Leaves-2" data-name="Leaves">
      <g class="cls-2">
        <path id="Leaves_4" data-name="Leaves 4" class="cls-1" d="m1090.36,239.91s-40.55-40.93-28.76-72.24c-8.54,14.39-17.83,28.22-27.74,41.6,12.22,8.56,24.7,20.87,26.66,37.18,2.42,20.32-7.51,49.44-7.51,49.44-11.52-3.87-25.61-21.27-30.07-33.32-4.34-11.72-5.85-20.45-4.22-33.54-9.91,12.32-20.18,24.54-30.51,36.75,9.94,7.15,17.29,17.82,20.18,30.88,4.17,18.68-1.85,34.09-2.31,52.31,0,0-23.74-13.57-27.99-25.52-4.73-13.37-5.53-27.64-3.48-41.59-9.88,11.84-19.62,23.77-28.96,36.06,21.54,45.27,14.56,78.86-5.8,105.17,0,0-26.42-57.52-5.59-92.15-.4.62-6.49,9.28-14.06,18.8,0,0-5.94,27.5-28.39,33.92-20.69,5.91-54.28-14.07-56.32-14.72.16-.23,22.36-21.76,35.72-27.47,14.1-6.05,48.2-5.18,48.55-5.07.25-.47,12.22-15.78,16.55-21.67-7.09,3.15-20.09,6.53-27.98,6.45-14.55-.23-38.6-14.64-49.12-28.33,0,0,9.78-20.21,44.04-12.91,23.08,4.91,37.69,14.24,41.92,23.11,6.42-8.23,16.54-20.46,23.16-28.51-65.16-11.07-70.61-42.2-70.61-42.2,13.28-12.21,35.57-12.96,50.75-7.89,18.26,6.22,28.47,18.02,30.3,37.48,13.16-15.87,22.88-27.48,35.62-43.63-27.65,2.5-63.63-15.98-82.34-38.38,0,0,25.51-17.2,61.92-11.91,19.34,2.82,30.02,15.14,33.52,33.12,10.29-13.75,19.97-28.04,28.83-42.97-46.9,15.02-75.99-24.55-75.99-24.55,13.12-13.11,31.55-19.46,47.91-13.89,16.71,5.68,31.79,11.15,39.38,18.11,6.16-12.07,11.79-24.66,16.59-37.9,2.11-5.99,10.68-3.09,8.57,2.9-4.98,13.71-10.71,26.86-17.13,39.56,15.18,19.43,24.19,33.24,26.22,49.48,1.32,10.58-5.55,46.93-11.45,48.3l-.06-.25Z"/>
        <path id="Leaves_2" data-name="Leaves 2" class="cls-1" d="m288.7-47.24s55.7-3.38,66.82-35.48c-2.78,16.92-4.66,33.86-5.8,51.03-14.46-1.88-31.36-1.07-43.04,10.06-14.53,13.88-25.69,43.09-25.69,43.09,10.9,4.96,32.31,1.37,43.25-4.79,10.63-6,17.2-11.57,24.28-22.76-.5,16.33-.59,32.71-.62,49.14-11.83-1.4-23.96,1.71-34.43,9.75-14.8,11.41-20.13,27.4-31.3,41.64,0,0,26.01,6.01,36.73-.23,11.94-6.99,21.46-17.34,28.81-29.46-.16,15.89-.53,31.81-1.37,47.64-44.44,19.78-60.45,50.32-62.06,84.59,0,0,55.8-25.9,62.26-66.7-.07.79-1.1,11.57-1.48,24.09,0,0-12.93,25.13-.48,45.54,11.53,18.77,48.87,26.7,50.84,27.56.04-.29-2.72-32.07-8.98-45.65-6.56-14.37-32.3-37.23-32.62-37.4.13-.52.98-20.49,1.45-28.04,3.24,7.36,10.65,18.85,16.61,24.21,10.88,9.82,37.71,15.47,54.06,12.19,0,0,5.54-22.28-24.34-40.23-20.19-12.13-36.8-15.12-45.44-11.22.47-10.74.71-27.09.91-37.84,55.05,36.49,78.67,16.35,78.67,16.35-2.11-18.48-18.05-34.48-32.48-40.99-17.37-7.89-32.38-5.88-45.98,7.74.27-21.21.49-36.83,1.28-58.01,18.8,21.01,57,31.6,84.91,27.36,0,0-7.94-30.73-38.19-51.87-16.07-11.23-31.7-9.12-45.67,2.28,1.12-17.6,2.97-35.21,5.82-52.82,25.1,43.85,71.57,33.57,71.57,33.57-1.41-19.04-11-36.67-26.5-43.68-15.93-7.17-30.5-13.39-40.42-13.25,3.05-13.5,6.83-27.01,11.7-40.52,2.21-6.05-5.92-9.78-8.13-3.73-5.01,13.93-9.03,27.97-12.3,42.12-23.46,4.37-38.82,8.72-50.56,19.81-7.64,7.2-25.48,39.76-21.99,44.9l-.1.02Z"/>
        <path id="Leaves_1" data-name="Leaves 1" class="cls-1" d="m157.89,337.91c3.38,12.55,16.72,63.72,32.76,63.38,0,0,1.62-84.38-22.87-128.62,9.4,6.3,29.16,18.6,38.75,24.19-.68,1.48,17.46,49.31,26.36,73.08,10.18,27.29,35.77,28.4,35.77,28.4,1.98-24.75-47.07-88.01-50.36-93.27,3.26,1.56,31.16,14.08,34.46,15.53,0,0,32.54,26.91,50.8,32.71,17.19,5.45,46.28,8.53,58.66,2.76,0,0-14.42-49.31-102.97-41.5-8.94-3.7-22.87-8.2-31.52-12.39,9.16-.56,39.78-2.21,48.87-4.15,24.66-5.32,48.94-25.74,46.75-24.74-25.29-17.69-99.69,16.77-100.29,18.66-.23.02-.41-.06-.64-.04-15.55-8.47-30.76-17.89-45.62-28.21,1.31-1.27,46.04-.98,62.63-5.13,23.21-5.84,62.17-41.83,56.16-41.42-25.55,1.61-51.41,8.68-76.53,14.23-15.18,3.37-53.72,18.65-59.11,20.08-6.66-5.09-13.22-10.33-19.74-15.85,4.64-1.94,57.96-8.92,78.58-14.8,18.93-5.4,55.89-32.63,55.89-32.63-24.12-3.16-52.57.24-75.81,6.62-19.01,5.18-72.79,28.54-72.79,28.54-8.32-7.36-16.49-14.72-24.57-22.29,61.93-.9,146.88-49.68,146.88-49.68-25.38-7.84-58.48-1.69-83.59,4.29-26.31,6.31-55.68,18.65-78.54,34.48-1.1-3.25-20.04-23.29-28.1-31.58,25.76-9.75,62.3-5.59,87.87-16.04,32.65-13.34,81.06-60.64,81.06-60.64-55.44-19.46-182.12,62.19-182.35,62.39-8.07-8.73-23.87-24.31-31.77-33.39C161.68,89.72,220.93,31.3,220.93,31.3c-39.58-3.54-79.97,10.19-117.56,22.88C76.13,63.35,9.3,101.21,7.98,102.23c-9.64-11.57-19.07-23.42-28.3-35.73-4.54-6.06-12.97,1.83-8.4,7.96,9.07,12.12,18.45,23.82,27.87,35.23-39.32,36.26-77.5,99.07-83.18,170.53,0,0,61.62-48.28,78.01-79.19,11.45-21.66,9.38-58.09,13.79-82.81,6.74,7.71,22.48,27.56,29.45,35.07C-8.57,244.88-18.67,337.61-18.67,337.61c50.55-28.04,68.85-112.73,74.92-164.41,6.96,7.07,13.98,14.1,21.13,21.07-6.48,19.99-29.47,77.23-29.56,99.37-.08,50.22,7.41,76.2,7.41,76.2,15.27,2.51,36.64-124.25,34.77-165.2,8.46,7.91,21.03,21.21,29.88,28.93l.11.3c-.11-.3-7.13,46.73-10.2,63.63-7.69,42.06.48,92.61.48,92.61,34.02-23.12,28.38-105.85,23.08-144.75,5.9,4.94,11.84,9.78,17.78,14.43-.12.5-1.6,47.71,6.71,78.22l.04-.11Z"/>
        <path id="Leaves_3" data-name="Leaves 3" class="cls-1" d="m835.84,199.81c6.79,9.83,34.86,49.52,24.58,64.28,0,0-61.12-43.35-77.28-89.71-1.41,12.1-5.11,37.12-7.21,49.07,1.49.14,24.13,42.52,35.47,63.57,12.96,24.07-2.3,48.55-2.3,48.55-18.88-11.36-33.1-90.73-34.77-96.62-.97,3.93-9.57,36.52-10.64,40.42,0,0-1.3,44.68-8.68,64.83-6.96,18.96-22.98,47.76-34.98,56.21,0,0-26.03-39.67,35.25-118.17,2.99-10.31,8.51-25.74,11.07-36.02-6.13,8.25-26.59,35.98-33.77,43.42-19.34,20.17-49.17,31.99-47.09,30.45,3.33-33.07,74.71-84.15,76.41-83.61.16-.2.25-.35.37-.62,3.74-19.06,6.65-38.19,8.59-57.63-1.72.57-29.67,42.37-43.09,55.7-18.72,18.55-68.95,35.82-64.92,30.39,17.29-22.99,38.57-43.33,58.33-63.88,11.92-12.37,47.05-40.19,51.52-44.48.58-8.9.95-17.85,1.1-26.9-4.31,3.28-42.81,49.36-60.01,65.5-15.74,14.76-58.5,34.78-58.5,34.78,12.94-24.21,33.26-48.95,52.44-67.28,15.63-14.96,66.16-52.78,66.16-52.78.04-11.7-.11-23.26-.39-34.73-39.64,57.37-127.84,110.58-127.84,110.58,10.43-27.89,35.6-55.55,55.63-75.75,20.98-21.22,48.36-42.01,74-54.89-1.65-2.74-4-31.13-4.85-43.02-23.21,18.88-43.21,55.16-66.74,73.44-30.04,23.37-94.2,43.37-94.2,43.37,21.04-62.14,158.95-136.86,159.31-137.02-1.13-12.24-2.25-35.25-3.77-47.39-108.68,127.53-187.67,151.72-187.67,151.72,22.4-38.85,57.66-69.2,90.37-97.59,23.64-20.54,92.73-62.79,94.32-63.44-2.16-15.14-4.69-30.29-7.64-45.42-1.47-7.48,9.5-11.14,10.91-3.62,2.94,14.95,5.36,29.91,7.55,44.76,50.59-17.42,119.42-19.6,173.85,13.12,0,0-73.21,31.82-105.55,30.65-22.62-.8-47.31-22.12-67.69-31.18,1.29,10.41,5.49,35.7,6.42,46.09,94.1,5.99,166.5,45.92,166.5,45.92-51.76,32.25-123.67,4.2-164.36-17.57.69,10.28,1.29,20.54,1.75,30.89,18.29,4.53,73.62,13.57,89.4,25.37,35.81,26.61,49.61,47.48,49.61,47.48-7.82,15.57-111.58-31.9-139.58-55.45.31,12.18,1.85,30.91,1.8,43.25.04.07.11.2.14.26-.14-.26,37.83,18.24,51.77,24.35,34.85,15.16,65.71,49.74,65.71,49.74-37.95,19.47-93.28-29.81-117.65-55.44-.18,8.17-.49,16.26-.94,24.26.43.15,34.99,23.93,51.56,47.84l.23-.07Z"/>
      </g>
    </g>
  </g>
</svg>