<?xml version="1.0" encoding="UTF-8"?>
<svg id="Layer_2" data-name="Layer 2" xmlns="http://www.w3.org/2000/svg" viewBox="0 0 200.78 293.77">
  <defs>
    <style>
      .cls-1 {
        fill: #fff;
      }

      .cls-2 {
        fill: #187795;
      }
    </style>
  </defs>
  <g id="Logo">
    <path id="Logo_Martini" data-name="Logo Martini" class="cls-2" d="m87.88,50.16c-1.55-.76-3.44-.41-4.58.89-3.2,3.66-8.9,12.34-8.9,27.72,0,5.29-2.49,10.8-5.43,15.47-2.03,3.22,1.3,7.12,4.79,5.62l52.73-22.67c1.42-.61,2.34-2.01,2.34-3.55v-1.06c0-1.48-.84-2.83-2.17-3.48l-38.79-18.94Z"/>
    <path id="Logo_Wine" data-name="Logo Wine" class="cls-2" d="m113.27,149.11s29.31,1.02,30.49,32.75-30.49,28.9-32.07,28.8c-.05,0-.09,0-.14,0h-40.47c-2.51,0-3.36-3.29-1.14-4.45,8.99-4.69,20.27-12.74,20.93-22.22.93-13.41-7.15-34.87,22.39-34.87Z"/>
    <path id="Logo_B" data-name="Logo B" class="cls-1" d="m50.43,215.52v-71.29h61.81c11.73,0,23,5.3,29.93,14.76,3.25,4.44,5.96,10.19,7.42,17.64h51.2s-5.18-46.01-32.4-56.38c0,0,20.09-16.2,20.09-43.42h-49.9l-88.14,38.24-.65-87.49,88.14,41.48h50.99S193.36,0,123.19,0H10.66C4.77,0,0,4.77,0,10.66v236.33c0,5.89,4.77,10.66,10.66,10.66h127.26s62.87-6.48,62.87-73.88h-51.2c-.1,17.57-14.37,31.7-31.94,31.76-67.62.21-67.22,0-67.22,0Z"/>
    <g id="Logo_Text" data-name="Logo Text">
      <path id="T" class="cls-1" d="m2.37,267.24h16.1c6.26,0,8.93,3.2,8.93,6.76,0,3.09-1.72,4.78-3.93,5.51,2.37.73,4.9,2.5,4.9,6.1,0,3.9-2.4,7.5-9.8,7.5H2.37v-25.88Zm13.14,9.78c1.59,0,2.17-.96,2.17-1.99,0-1.14-.75-1.87-2.21-1.87h-3.51v3.86h3.54Zm-3.54,10.22h3.41c1.92,0,2.63-1.03,2.63-2.28,0-1.1-.62-2.17-2.53-2.17h-3.51v4.45Z"/>
      <path id="R" class="cls-1" d="m40.25,289.44l-.81,3.68h-9.74l7.85-25.88h13.14l8.57,25.88h-10.65l-.88-3.68h-7.5Zm5.65-6.98c-.58-2.79-1.23-5.73-1.85-8.16h-.26c-.45,2.43-1.23,5.81-1.75,8.16h3.86Z"/>
      <path id="A" class="cls-1" d="m71.28,283.96v9.15h-9.7v-25.88h15.74c6.2,0,9.12,3.31,9.12,7.35,0,3.23-1.56,5.37-3.96,6.36,2.01.96,3.31,2.72,3.31,6.58v1.54c0,.99.06,2.76.36,4.04h-9.57c-.36-.99-.49-2.87-.49-5.18v-.92c0-2.5-.55-3.05-2.86-3.05h-1.95Zm0-5.92h2.86c1.14,0,2.43-.48,2.43-2.13,0-1.43-.97-2.17-2.5-2.17h-2.79v4.3Z"/>
      <path id="C" class="cls-1" d="m116.26,283.56c-1.1,7.09-6.1,10.22-13.5,10.22-8.79,0-13.7-5.48-13.7-13.67,0-7.24,3.99-13.53,13.99-13.53,8.96,0,12.76,4.74,13.31,10.07h-10.03c-.26-1.84-.91-3.53-3.25-3.53s-3.51,2.24-3.51,6.95c0,3.38.55,6.87,3.51,6.87,2.3,0,3.02-1.54,3.38-3.38h9.8Z"/>
      <path id="R-2" data-name="R" class="cls-1" d="m127.56,289.44l-.81,3.68h-9.74l7.85-25.88h13.14l8.57,25.88h-10.65l-.88-3.68h-7.5Zm5.65-6.98c-.58-2.79-1.23-5.73-1.85-8.16h-.26c-.45,2.43-1.23,5.81-1.75,8.16h3.86Z"/>
      <path id="A-2" data-name="A" class="cls-1" d="m158.58,283.96v9.15h-9.7v-25.88h15.74c6.2,0,9.12,3.31,9.12,7.35,0,3.23-1.56,5.37-3.96,6.36,2.01.96,3.31,2.72,3.31,6.58v1.54c0,.99.06,2.76.36,4.04h-9.57c-.36-.99-.49-2.87-.49-5.18v-.92c0-2.5-.55-3.05-2.86-3.05h-1.95Zm0-5.92h2.86c1.14,0,2.43-.48,2.43-2.13,0-1.43-.97-2.17-2.5-2.17h-2.79v4.3Z"/>
      <path id="B" class="cls-1" d="m183.06,274.22h-6.88v-6.98h23.66v6.98h-6.82v18.89h-9.96v-18.89Z"/>
    </g>
  </g>
</svg>