<?xml version="1.0" encoding="UTF-8"?>
<svg id="Layer_2" data-name="Layer 2" xmlns="http://www.w3.org/2000/svg" viewBox="0 0 93.34 186.83">
  <defs>
    <style>
      .cls-1 {
        fill: #2c303a;
      }
    </style>
  </defs>
  <g id="Menu_Bar" data-name="Menu Bar">
    <g id="Shaker_Icon" data-name="Shaker Icon">
      <g>
        <path id="Shaker_Icon_Path" data-name="Shaker Icon Path" class="cls-1" d="m70.03,30.34V5.84c0-3.22-2.09-5.84-4.67-5.84H27.98c-2.58,0-4.67,2.61-4.67,5.84v24.5C9.83,34.72.03,51.62,0,72.44c-.04,32.37,2.89,50.3,5.47,66.11,1.95,11.95,3.63,22.27,3.81,37.02.07,6.21,4.07,11.26,8.92,11.26h56.92c4.92,0,8.93-5.09,8.93-11.34,0-18.95,2.04-31.51,4.21-44.8,2.51-15.39,5.11-31.31,5.07-58.29-.03-20.79-9.83-37.68-23.3-42.06ZM18.62,175.15c-.21-15.71-2.04-26.99-3.99-38.93-2.4-14.68-5.08-31.37-5.25-60.32h4.63c.29,26.59,2.7,43.86,5.2,59.16,1.52,9.3,2.96,18.09,3.66,28.9.2,3.03,2.23,5.36,4.66,5.36h38.09c2.48,0,4.53-2.42,4.66-5.51.66-14.61,2.48-25.8,4.24-36.61.52-3.16-1.11-6.24-3.64-6.89-2.52-.65-5,1.4-5.51,4.56-1.61,9.85-3.27,19.99-4.11,32.78h-29.49c-.83-9.18-2.14-17.16-3.4-24.92-2.4-14.71-4.71-31.31-5-56.82h60.59c-.19,23.65-2.54,38.34-4.84,52.45-2.25,13.81-4.38,26.85-4.4,46.8H18.62ZM60.69,29.19h-18.69V11.68h18.69v17.52Zm-23.37,0h-4.67V11.68h4.67v17.52Zm-7.09,11.68h32.86c9.8,0,17.76,9.79,20.11,23.35H10.13c2.37-13.57,10.31-23.35,20.1-23.35Z"/>
        <rect id="Line_IN_shaker_Icon" data-name="Line IN shaker Icon" class="cls-1" x="18.63" y="52.55" width="56.08" height="5.84" rx="2.92" ry="2.92"/>
      </g>
    </g>
  </g>
</svg>